<?xml version="1.0" encoding="utf-8"?>
<!-- Generator: Adobe Illustrator 25.2.3, SVG Export Plug-In . SVG Version: 6.00 Build 0)  -->
<svg version="1.1" id="katman_1" xmlns="http://www.w3.org/2000/svg" xmlns:xlink="http://www.w3.org/1999/xlink" x="0px" y="0px"
	 viewBox="0 0 498 216" style="enable-background:new 0 0 498 216;" xml:space="preserve">
<style type="text/css">
	.st0{fill:#B96416;}
	.st1{fill:#CC7A19;}
	.st2{fill:#9F4928;}
	.st3{opacity:0.5;fill:#CC7A19;}
	.st4{opacity:0.5;}
	.st5{fill:#FFFFFF;}
	.st6{opacity:0.3;}
	.st7{opacity:0.1;fill:#FFFFFF;}
</style>
<g>
	<g>
		<path class="st0" d="M26.4,40.5c6.3,24.9,22.3,87.4,32,111c12.2,29.8,6.5,42.8,46.9,46.9c34.7,3.5,106.2,1.9,136.4,1.1
			c30.2,0.8,101.7,2.4,136.4-1.1c40.3-4.1,34.6-17.1,46.9-46.9c9.7-23.6,27.1-95.7,33.3-120.6L26.4,40.5z"/>
	</g>
	<g>
		<g>
			<path class="st1" d="M470,18.6c-3.3-11.8-21.7-9.2-30.6-8.8c-3,0.1-6.1,0.1-9.1,0.2c-15.2,0.3-30.3,0.4-45.5,0.6
				c-17.1,0.2-221.1,4.4-238.1,5c-16.8,0.6-33.6,1.2-50.5,1.8c-14.9,0.5-29.8,1-44.6,1.5c-3,0.1-6,0.3-8.9,0.3
				c-8.7,0-27-1.7-29.6,10c-1.4,6.2,2.3,13.5,8.9,14.6c5.7,1,11.8-0.2,17.5-0.5c17-1.1,34.1-1.4,51.1-1.8
				c17.2-0.4,34.4-0.9,51.6-1.2c17.5-0.4,34.9-0.8,52.4-1.2c6.4-0.1,39.1-0.4,47.2-0.6c14.7-0.3,29.3-0.7,44-1.1
				c17.8-0.4,35.6-0.9,53.4-1.3c17.5-0.4,35-0.8,52.5-1.2c17.4-0.4,34.7-0.9,52.1-0.6c5.8,0.1,12.1,1,17.9-0.3
				C468.3,32.4,471.7,24.8,470,18.6z"/>
			<g>
				<path class="st2" d="M49.8,42.3c-4.3-0.7-5.4-7-5.8-10.5c-0.4-3.8,0.9-7.7,2.4-11.2c0.1-0.2-0.2-0.4-0.3-0.2
					c-3.2,4-3.8,9.2-2.8,14.1c0.2,0.9,0.5,2.1,0.9,3.3c-3.6-5.1-4.4-11.4,0-16.9c0.2-0.3-0.2-0.6-0.5-0.4
					c-5.4,5.6-4.1,17.2,2.7,21.5c0.1,0.1,0.2,0.1,0.3,0.1c0.9,0.8,1.9,1.3,3.1,1.3C50.3,43.2,50.3,42.4,49.8,42.3z"/>
				<path class="st2" d="M50.4,41.4c-4.6-6.5-5.1-14.3-0.5-21c0.2-0.3-0.2-0.7-0.5-0.4c-2.5,2.9-4.3,6.8-4.1,10.7
					c0.2,3.5,1.3,9.2,4.6,11.2C50.3,42.1,50.7,41.7,50.4,41.4z"/>
				<path class="st2" d="M101.9,41.5c-5.4-7.4-6.8-15.9-4.2-24.7c0.1-0.4-0.4-0.6-0.6-0.3c-3.6,7.6-3.8,20.5,4,25.7
					C101.7,42.6,102.3,42,101.9,41.5z"/>
				<path class="st2" d="M106.2,41.5c-5.4-6.3-6.2-16.6-4-24.2c0.1-0.3-0.3-0.4-0.4-0.2c-2,4.2-2.8,8-2,12.6
					c0.1,0.8,0.3,1.7,0.5,2.6c-0.4-0.8-0.8-1.6-1.1-2.4c-1.6-3.9-0.7-9,0.6-12.8c0.1-0.4-0.4-0.6-0.6-0.2
					c-3.3,7.1-3.3,17.6,3.6,22.8c0.1,0.1,0.2,0.1,0.3,0.1c0.7,1,1.4,1.9,2.3,2.6C105.9,42.7,106.6,42,106.2,41.5z"/>
				<path class="st2" d="M170.4,39c-2.1-3.9-4.2-7.4-4.8-11.9c-0.5-3.5,0-6.7,1.1-10.1c0.2-0.7,1-1.8,0.9-2.7c0-0.2-0.2-0.3-0.4-0.3
					c-2.7,0.5-3.7,8.6-3.6,10.7c0.1,5.2,1.6,11.8,6.3,14.7C170.1,39.6,170.6,39.4,170.4,39z"/>
				<path class="st2" d="M175.8,38.8c-4.4-6.9-8.2-15.7-5-23.9c0.1-0.4-0.4-0.6-0.6-0.2c-3.8,6.7-2.5,20.9,4.9,24.9
					C175.7,39.9,176.1,39.2,175.8,38.8z"/>
				<path class="st2" d="M246.4,22.8c-0.5-3.4,0.2-6.5,0-9.8c0-0.4-0.6-0.4-0.8-0.1c-2.9,5.6-1,15.8,2.9,20.5c0.3,0.3,0.8,0,0.6-0.4
					C248,29.7,247,26.4,246.4,22.8z"/>
				<path class="st2" d="M246.2,37.8c-3.4-7.2-5.6-16.5-4.5-24.5c0.1-0.5-0.6-0.6-0.7-0.1c-1.1,4.5-0.8,9,0,13.5
					c0.7,3.8,1.6,8.7,4.1,11.7C245.6,38.9,246.6,38.4,246.2,37.8z"/>
				<path class="st2" d="M244,38.8c-1.9-4-3.3-7.5-4.2-11.8c-0.9-4.3-0.2-8.8-0.1-13.2c0-0.5-0.7-0.6-0.8-0.1c-1.5,7.8-2.7,20,4,26
					C243.4,40.1,244.3,39.4,244,38.8z"/>
				<path class="st2" d="M290.7,18.6c-0.1-1.8,0.4-6-0.9-7.4c-0.1-0.2-0.4-0.1-0.5,0.1c-0.7,5.9-0.6,13.7,2.2,19
					c0.2,0.3,0.7,0.2,0.6-0.2C291.8,26.3,291,22.5,290.7,18.6z"/>
				<path class="st2" d="M295.9,23.5c-0.2-4,0.3-8.1-0.1-12.1c0-0.5-0.8-0.5-0.8,0c-1.2,8-1.5,17.6,1.7,25.2
					c0.1,0.3,0.6,0.2,0.5-0.1C296.9,32.1,296.1,27.8,295.9,23.5z"/>
				<path class="st2" d="M292.8,22.4c-0.3-3.4,0.2-6.8,0.2-10.2c0-0.5-0.7-0.4-0.8,0c-1.3,6.6-1.4,15.7,2.3,21.5
					c0.1,0.2,0.6,0.1,0.5-0.2C294,29.9,293.2,26.2,292.8,22.4z"/>
				<path class="st2" d="M336.6,23.1c-0.3-4,0.9-8.3-0.1-12.3c-0.1-0.5-0.8-0.5-0.9,0c-0.7,7.8-2.6,19.3,2.9,25.9
					c0.5,0.5,1.3,0,1-0.6C338.1,31.8,337,27.8,336.6,23.1z"/>
				<path class="st2" d="M340.6,24.3c-0.4-4.3,0.5-8.6,0.4-12.9c0-0.5-0.8-0.5-0.9,0c-1.7,7.1-3.8,19.7,2.2,25.5
					c0.4,0.4,1.2-0.1,1-0.6C342.3,32.3,341,28.6,340.6,24.3z"/>
				<path class="st2" d="M403.3,24.4c-0.1-4.5-1.1-12.5-5.2-15.3c-0.2-0.2-0.6,0.1-0.5,0.4c1.9,4.3,2.6,9,3.2,13.6
					c0.5,3.8-1.4,7.9-0.9,11.5c0.1,0.4,0.5,0.7,0.9,0.5C404,33.5,403.3,27.4,403.3,24.4z"/>
				<path class="st2" d="M403.5,9.6c-0.4-0.5-1.2,0-0.9,0.6c2.9,7.6,4.3,15.3,2,23.3c-0.1,0.3,0.4,0.7,0.6,0.3
					C409.9,26.7,408.7,16.1,403.5,9.6z"/>
				<path class="st2" d="M457,18.4c-0.3-3.4-1-8.2-4-10.4c-0.5-0.4-1,0.2-0.7,0.7c4.5,6.8,3.2,16.7,2.1,24.2
					c-0.1,0.9,1.2,1.3,1.5,0.4C457.6,28.5,457.4,23.5,457,18.4z"/>
				<path class="st2" d="M451.2,8.2c-0.3-0.4-1,0-0.8,0.5c0.8,2.3,1.8,4.4,2.4,6.8c0.6,2.5,0.4,5.1,0.6,7.7c0.1,0.9,1.4,0.9,1.5,0
					C455.6,17.8,454.6,12.5,451.2,8.2z"/>
			</g>
			<g>
				<path class="st3" d="M470,18.6c-0.7-2.4-2-4.2-3.7-5.6c-1.5,2.8-3.9,5-7.2,5.7c-5.7,1.2-11.9,0.4-17.6,0.3
					c-17.1-0.3-34.3,0.2-51.4,0.6c-17.3,0.4-34.6,0.7-51.8,1.2c-17.6,0.4-35.1,0.9-52.7,1.3c-14.5,0.4-28.9,0.7-43.4,1.1
					c-7.9,0.2-40.2,0.4-46.6,0.6c-17.2,0.4-34.5,0.8-51.7,1.1c-17,0.4-33.9,0.8-50.9,1.2c-16.8,0.4-33.6,0.7-50.4,1.8
					c-5.6,0.4-11.7,1.5-17.3,0.5c-3.5-0.6-6.1-2.9-7.6-5.9c-2.2,1.5-3.9,3.6-4.6,6.6c-1.4,6.2,2.3,13.5,8.9,14.6
					c5.7,1,11.8-0.2,17.5-0.5c17-1.1,34.1-1.4,51.1-1.8c17.2-0.4,34.4-0.9,51.6-1.2c17.5-0.4,34.9-0.8,52.4-1.2
					c6.4-0.1,39.1-0.4,47.2-0.6c14.7-0.3,29.3-0.7,44-1.1c17.8-0.4,35.6-0.9,53.4-1.3c17.5-0.4,35-0.8,52.5-1.2
					c17.4-0.4,34.7-0.9,52.1-0.6c5.8,0.1,12.1,1,17.9-0.3C468.3,32.4,471.7,24.8,470,18.6z"/>
			</g>
			<g>
				<path class="st3" d="M402.8,29.9c-18.8,0.4-37.6,0.8-56.4,1.3c-19.1,0.5-38.2,0.9-57.4,1.4c-15.8,0.4-31.5,0.8-47.3,1.2
					c-8.6,0.2-43.8,0.5-50.7,0.6c-18.8,0.4-37.5,0.8-56.3,1.2c-18.5,0.4-36.9,0.9-55.4,1.3c-18.3,0.5-36.6,0.8-54.9,1.9
					c-2.9,0.2-6,0.6-9.1,0.8c1.6,2,3.8,3.6,6.5,4c5.7,1,11.8-0.2,17.5-0.5c17-1.1,34.1-1.4,51.1-1.8c17.2-0.4,34.4-0.9,51.6-1.2
					c17.5-0.4,34.9-0.8,52.4-1.2c6.4-0.1,39.1-0.4,47.2-0.6c14.7-0.3,29.3-0.7,44-1.1c17.8-0.4,35.6-0.9,53.4-1.3
					c17.5-0.4,35-0.8,52.5-1.2c17.4-0.4,34.7-0.9,52.1-0.6c5.8,0.1,12.1,1,17.9-0.3c2.7-0.6,4.8-2.2,6.3-4.3
					c-3.1-0.1-6.2-0.3-9.2-0.4C440.1,28.9,421.4,29.4,402.8,29.9z"/>
			</g>
		</g>
		<g class="st4">
			<path class="st5" d="M27.4,21.4c-2.3-0.4-4.4,0.2-6.6,0.8c-0.9,0.2-1,1.5,0,1.6c0.9,0.1,1.7-0.1,2.6-0.1c1.3,0,2.7-0.2,4-0.5
				C28.4,23,28.4,21.5,27.4,21.4z"/>
			<path class="st5" d="M34.3,20.5c-0.9-0.3-1.8-0.1-2.8,0c-0.9,0.1-0.9,1.5,0,1.6c0.9,0.1,1.9,0.3,2.8,0C35,21.8,35,20.7,34.3,20.5
				z"/>
			<path class="st5" d="M93.2,19.4c-6.9-0.9-14.1-0.2-21.1,0.1c-6.3,0.2-13-0.3-19.2,1.1c-0.3,0.1-0.3,0.5,0,0.6
				c5.8,0.9,12.1,0.5,18,0.3c7.3-0.2,15,0.4,22.2-0.7C94,20.7,94,19.5,93.2,19.4z"/>
			<path class="st5" d="M156,18.4c-6.8-1.3-14.9,0.2-21.8,0.3c-8.8,0.1-17.4,0-26.1,0.8c-0.4,0-0.4,0.7,0,0.7
				c8.1,0.5,16.3,0.9,24.4,1c7.6,0.1,16.1,0.7,23.6-0.9C157,19.9,157,18.6,156,18.4z"/>
			<path class="st5" d="M235.3,15.5c-9.3-1.3-19.3,0.1-28.7,0.3c-9.2,0.2-19-0.2-28.1,1.5c-0.4,0.1-0.5,0.8,0,0.8
				c8.9,0.3,17.7,0.5,26.6,0.2c9.9-0.3,20.3,0.5,30.1-1.1C236.3,17.1,236.3,15.6,235.3,15.5z"/>
			<path class="st5" d="M281.4,15.1c-4.4-0.5-9-0.2-13.4-0.2c-4.6,0-9.4,0.8-14,0.7c-0.5,0-0.6,0.6-0.1,0.7
				c3.9,0.8,8.2,0.3,12.2,0.4c5.1,0.1,10.3,0.4,15.3-0.1C282.3,16.5,282.3,15.2,281.4,15.1z"/>
			<path class="st5" d="M331.6,14.8c-9.6-1.8-19.5,0.3-29.1,0c-0.3,0-0.4,0.5-0.1,0.5c4.7,1,9.8,0.7,14.6,0.7c4.9,0,9.7,0.9,14.6,0
				C332.3,15.9,332.3,14.9,331.6,14.8z"/>
			<path class="st5" d="M387.1,13.9c-14.2-1.6-28.5,0.1-42.8-0.4c-0.9,0-1.2,1.4-0.2,1.5c6.3,0.7,13.2,1.1,19.5,0.7
				c7.8-0.5,15.6,0.1,23.4-0.7C387.7,14.8,387.7,13.9,387.1,13.9z"/>
			<path class="st5" d="M397.4,13.6c-1.8-1.1-3.9-1.1-5.9-0.7c-0.8,0.2-0.9,1.5,0,1.6c1.9,0.1,3.7,0.8,5.6,0.5
				C397.6,14.9,398,14,397.4,13.6z"/>
			<path class="st5" d="M443.9,11.3c-10.7-0.9-21.7-0.5-32.3,0.8c-0.3,0-0.3,0.4,0,0.5c10.4,1.2,21.9,0.7,32.3-0.2
				C444.5,12.3,444.5,11.4,443.9,11.3z"/>
			<path class="st5" d="M463.4,12c-1.5-0.9-3.1-1.1-4.8-1c-0.7,0.1-0.7,1.2,0,1.2c1.5,0.2,2.9,0.7,4.4,0.8
				C463.5,13.2,464,12.4,463.4,12z"/>
		</g>
	</g>
	<g>
		<g>
			<path class="st2" d="M54.2,91.9c-1.6-5.3-3.5-10.5-4.3-16c-0.8-5.2-0.4-10.4-0.4-15.6c0-0.6-0.9-0.5-1,0
				c-2.5,10.5-0.1,22.5,4.2,32.3C53.1,93.6,54.5,93,54.2,91.9z"/>
			<path class="st2" d="M67.2,95.8c-2.6-5.1-5-10-6.1-15.6c-1.1-5.3-0.6-10.9-0.9-16.3c-0.1-0.8-1.4-0.8-1.5,0
				c-0.9,11.5-0.9,23.5,7,32.8C66.3,97.4,67.7,96.8,67.2,95.8z"/>
			<path class="st2" d="M78,90.6c-1.6-4.5-3.4-8.7-4.4-13.5c-1.1-5.2-0.7-10.4-0.8-15.7c0-0.8-1.4-0.8-1.5,0
				c-1,10.2-0.8,21.2,5.2,30C77.1,92.2,78.3,91.4,78,90.6z"/>
			<path class="st2" d="M78.9,167.9c-4-8.5-5-16.7-6.5-25.8c-0.1-0.5-0.8-0.4-0.8,0.1c0.6,9.3,1.4,18.1,6.3,26.3
				C78.2,169.1,79.2,168.5,78.9,167.9z"/>
			<path class="st2" d="M90.3,165.4c-2.1-5.3-4.3-10.5-5.3-16.1c-0.7-3.9-0.6-8.6-2.4-12.2c-0.3-0.6-1.2-0.4-1.1,0.3
				c0.8,4.5,1.1,9.2,1.9,13.8c0.9,5.2,3.1,10.2,5.5,14.8C89.3,166.9,90.7,166.4,90.3,165.4z"/>
			<path class="st2" d="M102.8,168.2c-4.1-9-5.6-18.8-6.6-28.6c-0.1-0.9-1.6-0.9-1.6,0c-0.4,9.6,1.7,21,6.4,29.4
				C101.5,170.1,103.3,169.4,102.8,168.2z"/>
			<path class="st2" d="M110.5,132.2c-2.7-4.9-4.8-9.4-6-15c-1.2-5.9-1.6-11.9-2.3-17.8c-0.1-0.6-1.1-0.6-1.1,0
				c-1,11.3,1.4,24.3,7.9,33.7C109.6,133.8,111,133,110.5,132.2z"/>
			<path class="st2" d="M119.9,133.9c-1.9-5.7-4.1-11.2-5.2-17.1c-1.1-5.4-1.4-10.9-2.3-16.3c-0.1-0.8-1.3-0.6-1.2,0.2
				c1.4,11.9,1.9,22.9,7.6,33.7C119.1,135.2,120.2,134.7,119.9,133.9z"/>
			<path class="st2" d="M131.3,127.8c-2-7-4.4-14-5.4-21.3c-0.1-0.6-1.1-0.6-1.1,0c-0.3,7.2,2,15.4,5,21.9
				C130.3,129.4,131.5,128.8,131.3,127.8z"/>
			<path class="st2" d="M132.1,100.9c-1.2-4.4-2.8-8.7-3.4-13.2c-0.8-5.4-1.3-10.9-2-16.3c-0.1-0.9-1.4-0.7-1.3,0.2
				c0.7,10.2,0.8,20.3,5.3,29.7C131,102,132.4,101.7,132.1,100.9z"/>
			<path class="st2" d="M145.8,101.1c-2.3-5.2-4.4-10.3-5.6-15.9c-1-4.4-1.1-9-2.7-13.3c-0.2-0.5-1.1-0.3-0.9,0.3
				c1.9,10.2,1.6,20.9,7.7,29.9C144.8,102.9,146.2,102,145.8,101.1z"/>
			<path class="st2" d="M151.7,71.8c-0.1-0.4-0.8-0.2-0.7,0.2c1.9,8.9,2.5,18.1,5.4,26.7c0.2,0.7,1.5,0.4,1.3-0.4
				C156.1,89.5,154.2,80.5,151.7,71.8z"/>
			<path class="st2" d="M205.5,120.7c0.1-0.7-0.9-0.8-1-0.1c-1.8,8.7-1.3,18.1,1,26.6c0.3,1,1.9,0.5,1.7-0.5
				C205.4,138.1,204.7,129.4,205.5,120.7z"/>
			<path class="st2" d="M214.6,121.8c0-1-1.7-1-1.7,0c-0.5,10-0.1,20.6,3.1,30.1c0.3,0.9,1.7,0.5,1.5-0.4
				C216.2,141.6,214.6,131.9,214.6,121.8z"/>
			<path class="st2" d="M235.4,148.1c-3.6-9.6-5.1-19.3-6-29.5c-0.1-0.9-1.4-0.7-1.4,0.2c0.2,10.1,0.9,20.9,5.8,30
				C234.3,149.8,235.8,149.2,235.4,148.1z"/>
			<path class="st2" d="M242.6,88.1c0-0.5-0.9-0.5-0.9,0c-0.3,11.5-0.7,22.5,1.7,33.9c0.2,0.9,1.5,0.7,1.4-0.2
				C243.5,110.5,242.8,99.6,242.6,88.1z"/>
			<path class="st2" d="M255.5,85.3c0.1-0.8-1-0.9-1.2-0.2c-2.8,10.4-2.8,22.4-0.4,32.9c0.2,0.9,1.4,0.7,1.4-0.2
				C254.9,106.9,253.5,96.2,255.5,85.3z"/>
			<path class="st2" d="M267.9,100.3c-0.4-6,0-12.1-0.1-18.1c0-0.8-1.2-0.7-1.3,0c-1.8,12.6-1.6,25.8,3.5,37.6
				c0.3,0.8,1.6,0.5,1.5-0.4C270.3,113,268.3,106.9,267.9,100.3z"/>
			<path class="st2" d="M324.9,124.6c0.5-6.1,2.1-12.1,2.9-18.2c0.1-0.8-1-0.9-1.2-0.2c-3,12.7-6.2,25-2.9,38c0.3,1.2,2.2,1.1,2-0.3
				C324.9,137.4,324.3,131.2,324.9,124.6z"/>
			<path class="st2" d="M337.3,112.1c0.1-0.9-1.3-1.1-1.4-0.2c-2,11.4-3.6,22.9-1.4,34.4c0.2,1,1.6,0.8,1.6-0.2
				C335.5,134.6,336.1,123.6,337.3,112.1z"/>
			<path class="st2" d="M352.7,123c0.2-5.3,1.1-10.7,0.7-16.1c-0.1-0.7-1.1-0.5-1.1,0.1c0.1,5.8-1.5,11.7-1.9,17.5
				c-0.4,5.8-0.3,11.7,0.8,17.4c0.2,1.1,1.7,0.8,1.6-0.2C352.7,135.5,352.5,129.3,352.7,123z"/>
			<path class="st2" d="M404.5,108.5c-3.8,10.8-5.4,22.9-4.6,34.3c0.1,0.7,1.2,0.7,1.2,0c0.4-5.7,0.3-11.4,1.1-17.2
				c0.7-5.6,2.8-11.3,3.1-16.9C405.4,108.3,404.7,108,404.5,108.5z"/>
			<path class="st2" d="M415.7,110.3c-1.9,12.3-5.2,24.4-3.8,37c0.1,1.1,1.9,1.1,1.9,0c0.1-6.5,0.3-13,1-19.5
				c0.7-5.8,2-11.5,2.2-17.3C417,109.6,415.8,109.4,415.7,110.3z"/>
			<path class="st2" d="M358.4,163.7c0.2-4.1,0.8-8.1,0.9-12.2c0-0.4-0.6-0.6-0.8-0.2c-1.8,3.5-1.5,8.3-1.8,12.2
				c-0.3,4.9,0.2,9.5,1.2,14.3c0.2,0.9,1.6,0.8,1.5-0.2C358.8,172.9,358.2,168.4,358.4,163.7z"/>
			<path class="st2" d="M370.5,152.5c0.1-0.6-0.7-0.8-1-0.3c-3.5,7.6-2.6,18.5-0.4,26.3c0.2,0.8,1.5,0.4,1.4-0.4
				C368.9,169.9,368.7,160.9,370.5,152.5z"/>
			<path class="st2" d="M383.5,152.9c-0.1-0.6-1.1-0.7-1.1,0c-0.2,8.2-1.5,16.3,0.5,24.4c0.3,1.1,1.9,0.9,1.8-0.2
				C383.7,169,384.5,160.9,383.5,152.9z"/>
			<path class="st2" d="M367.5,84.7c0.4-5,1.6-9.9,2.4-14.9c0.1-0.5-0.7-0.6-0.8-0.1c-2.5,10.8-5.1,21.2-1.5,32.2
				c0.2,0.6,1.2,0.3,1.1-0.3C367.8,95.9,367.1,90.4,367.5,84.7z"/>
			<path class="st2" d="M382.4,84.9c0.2-4.6,0.9-9.1,0.9-13.7c0-0.7-1.2-0.7-1.2,0c-0.8,11-3.5,21.5-0.2,32.5c0.3,1,1.8,0.5,1.7-0.5
				C382.8,97,382.2,91.1,382.4,84.9z"/>
			<path class="st2" d="M398.6,71.7c0-0.9-1.3-1.1-1.4-0.2c-0.6,10.8-3.9,21.5-1.9,32.4c0.2,1,1.6,0.8,1.5-0.2
				C396,92.8,398.3,82.5,398.6,71.7z"/>
		</g>
		<path class="st2" d="M147.5,45.4c-9.2,2-18.3,3-27.8,2.4c-0.5,0-0.6,0.6-0.1,0.7c9.1,1.8,19.7,2.1,28.3-1.5
			C148.9,46.7,148.5,45.2,147.5,45.4z"/>
		<path class="st2" d="M151.7,55c-9.9,2-21.6,5.3-31.7,2.7c-0.4-0.1-0.5,0.5-0.2,0.7c4.1,2,9.3,1.7,13.8,1.7
			c6.2,0,12.8-1.1,18.5-3.5C152.9,56.2,152.6,54.8,151.7,55z"/>
		<path class="st2" d="M118.3,70.5c-8.9,1.7-17.1,2.1-26.2,0.5c-0.4-0.1-0.6,0.6-0.2,0.7c8.4,2.6,18.5,4.4,26.8,0.5
			C119.6,71.7,119.3,70.3,118.3,70.5z"/>
		<path class="st2" d="M120.1,83.5c-8.6,1.1-17.8,1.7-26.5,0.8c-0.4-0.1-0.7,0.6-0.2,0.8c7.9,2.6,19.2,2.7,27.2,0.4
			C121.7,85.1,121.2,83.4,120.1,83.5z"/>
		<path class="st2" d="M119.1,95c-8.5,0.5-16.3,1.2-24.8-0.6c-0.5-0.1-0.7,0.6-0.2,0.8c7.5,3,17.6,4.1,25.4,1.3
			C120.4,96.1,119.9,95,119.1,95z"/>
		<path class="st2" d="M165,103.9c-10.7,2.5-20.8,4.1-31.8,3.8c-1,0-1.3,1.6-0.2,1.6c10.9,0.8,22.3,0.5,32.5-3.6
			C166.4,105.3,166,103.6,165,103.9z"/>
		<path class="st2" d="M162.1,118.7c-9.4,1.2-19,2.9-28.5,1.2c-0.8-0.1-1.1,1.1-0.4,1.4c8.7,2.7,20.8,2.4,29.4-0.7
			C163.7,120.3,163.2,118.6,162.1,118.7z"/>
		<path class="st2" d="M161.1,132.7c-7.8,1.6-17.3,5-25.3,3.6c-0.6-0.1-0.9,0.9-0.3,1.1c7.7,2.7,18.8-0.1,26.2-2.5
			C162.9,134.5,162.4,132.5,161.1,132.7z"/>
		<path class="st2" d="M134.4,142.2c-9.8-0.1-19.5,1.8-29.3-0.4c-0.4-0.1-0.5,0.5-0.2,0.6c8.9,3.4,20.3,4,29.4,1.5
			C135.3,143.7,135.5,142.2,134.4,142.2z"/>
		<path class="st2" d="M137,150.9c-9.3,1.1-18.4,2.2-27.7,1c-0.7-0.1-0.8,0.9-0.1,1c9.4,2.3,18.6,1.8,28.1,0.1
			C138.7,152.7,138.4,150.7,137,150.9z"/>
		<path class="st2" d="M136.7,160.2c-9.3,1.6-18.4,3.9-27.9,2.3c-0.6-0.1-0.8,0.8-0.3,1c9,2.6,19.9,1.5,28.6-1.8
			C138,161.4,137.6,160.1,136.7,160.2z"/>
		<path class="st2" d="M86.9,103.4c-10.5,0.2-20.7,2.5-31.3,1.2c-0.7-0.1-0.7,0.8-0.1,1c9.5,2.5,22.3,1.9,31.8-0.8
			C88.2,104.6,87.7,103.4,86.9,103.4z"/>
		<path class="st2" d="M85.7,117.9c-8.1-1.1-16.1-0.9-24.2-1.6c-0.7-0.1-0.8,0.9-0.1,1c7.8,1.3,16.2,2,24.1,2.2
			C86.5,119.4,86.7,118,85.7,117.9z"/>
		<path class="st2" d="M87.6,130.2c-8.2,0.6-15.8,1.4-24.1,0.6c-0.9-0.1-1,1.2-0.2,1.3c8,1.4,16.9,2.3,24.6-0.7
			C88.7,131.2,88.3,130.1,87.6,130.2z"/>
		<path class="st2" d="M229.6,94.8c-11.2,0.4-22.1,0.8-33.3,0.2c-0.5,0-0.7,0.7-0.1,0.8c10.8,1.9,22.8,2.6,33.6,0.2
			C230.6,95.9,230.4,94.7,229.6,94.8z"/>
		<path class="st2" d="M236.1,106.1c-7.2,0.2-14.3,1-21.5,1.2c-6.6,0.2-13.5-0.5-20.1-1c-0.6,0-0.7,0.8-0.1,0.9
			c13.4,2.8,28.5,2.8,41.9,0.4C237.3,107.5,237.1,106.1,236.1,106.1z"/>
		<path class="st2" d="M232,116c-12.5,1-25.9,2.2-38.4,0.7c-0.6-0.1-0.7,0.7-0.1,0.9c5.4,1.3,11.2,1.1,16.8,1.1
			c7.2-0.1,14.8-0.2,21.9-1.6C232.8,117,232.7,116,232,116z"/>
		<path class="st2" d="M267,58c-4.9-0.1-9.8,0.5-14.8,0.4c-4.6-0.1-9.4-0.8-14-1.3c-0.4,0-0.5,0.5-0.1,0.6
			c9.4,2.1,19.3,3.9,28.8,1.9C267.8,59.4,268,58,267,58z"/>
		<path class="st2" d="M266.3,66.4c-9.8,0.2-19.5,1.3-29.2-1.1c-0.5-0.1-0.6,0.6-0.2,0.8c9.1,3.5,20.1,3.2,29.6,1.5
			C267.3,67.4,267.1,66.4,266.3,66.4z"/>
		<path class="st2" d="M268.8,74c-13.1,2.9-25.4,3.4-38.6,1.3c-0.4-0.1-0.5,0.5-0.1,0.7c12.8,3.5,26.4,3.1,39.1-0.5
			C270.1,75.3,269.7,73.8,268.8,74z"/>
		<path class="st2" d="M360.1,75.3c-6.9,0.7-13.6,1.3-20.6,0.8c-6.2-0.5-12.1-1.8-18.1-3.1c-0.6-0.1-0.8,0.8-0.3,1
			c12.3,4.5,26.4,6.4,39.2,3C361.3,76.6,361.2,75.1,360.1,75.3z"/>
		<path class="st2" d="M356,87.4c-10.6,1-20.9,0.8-31.4-1.3c-0.5-0.1-0.8,0.8-0.2,0.9c9.9,3.2,21.7,4.9,31.9,2.2
			C357.3,88.8,357.1,87.2,356,87.4z"/>
		<path class="st2" d="M361.5,98.1c-12.9,4.1-26.5,4.4-39.8,1.8c-0.9-0.2-1.1,1.2-0.2,1.4c12.8,3.4,28.5,4,40.7-1.6
			C363.3,99.2,362.6,97.7,361.5,98.1z"/>
		<path class="st2" d="M436,70.7c-9-0.2-18.3,0.3-27.3-1.1c-0.6-0.1-0.7,0.8-0.1,1c8.8,2.1,18.5,2.3,27.4,1.9
			C437,72.5,437,70.8,436,70.7z"/>
		<path class="st2" d="M429.9,81.6c-6.8,0.7-13.7,1.5-20.5,0.4c-0.8-0.1-0.9,1-0.2,1.2c6.7,1.6,14.1,1.4,20.9,0.1
			C431.2,83,431,81.5,429.9,81.6z"/>
		<path class="st2" d="M427.4,95.8c-7.8,1.5-15,3.4-23,1.7c-0.6-0.1-0.8,0.8-0.3,1c7.8,2.8,16.1,2.1,23.7-1.1
			C428.7,97.1,428.4,95.6,427.4,95.8z"/>
		<path class="st2" d="M392.1,108.6c-8.7,0.4-18.3,1.6-26.9,0.1c-0.5-0.1-0.8,0.8-0.2,0.9c4.1,1.2,8.5,1.3,12.7,1.4
			c4.9,0.1,9.8,0.3,14.7-0.5C393.6,110.3,393.3,108.5,392.1,108.6z"/>
		<path class="st2" d="M389.6,124.7c-9.7-0.4-19.3-0.5-28.9-2.6c-0.8-0.2-1.1,1.1-0.4,1.3c9.6,2.9,19.3,3.6,29.2,3.1
			C390.7,126.5,390.7,124.7,389.6,124.7z"/>
		<path class="st2" d="M388.9,140.8c-9.6,0.7-18.9,0.3-28.3-2c-0.7-0.2-1.1,1-0.3,1.3c9.1,3,19.4,4.2,28.9,2.5
			C390.3,142.4,390.1,140.7,388.9,140.8z"/>
	</g>
	<g class="st6">
		<path class="st0" d="M265.6,60.4c1.3,0.1,2.6,1.9,1.2,3c-3,2.4-7.4,2.5-11.1,2.6c-5,0.1-10.1-0.7-14.7-2.4
			c-0.3-0.1-0.6-0.3-0.8-0.5c-1.7-0.7-0.8-3.6,1.3-3.2c4.8,0.8,9.6,1.2,14.5,1.1C259.1,60.8,262.4,60,265.6,60.4z"/>
		<path class="st0" d="M252.2,119.8c0.2,0.8-0.1,1.5-0.7,1.8c-0.5,1.2-2.2,1.7-3.1,0.3c-3.8-5.9-4.3-14.7-4.1-21.5
			c0.1-3.6-0.1-11.3,4-12.9c0.6-0.2,1.3,0.1,1.7,0.5c2,1.7,1.3,5.7,1,8C249.8,104.6,249.9,111.5,252.2,119.8z"/>
		<path class="st0" d="M242.1,74.8c-2.8-0.2-7.4-1.8-8.2-4.8c-1.1-1.2,0.5-3.5,2.3-2.6c8.4,4.1,18.9,3,27.8,2.2
			c2-0.2,2.3,2.9,0.5,3.4C257.3,75,249.4,75.4,242.1,74.8z"/>
		<path class="st0" d="M260.6,85.8c1-0.9,2.5-0.5,2.9,0.8c1.1,3.3,0,6.4-0.9,9.6c-0.6,4.6-0.9,9.3,0.1,13.9c0.7,3.3,2.1,6.3,2.9,9.6
			c0.4,1.6-1.2,2.6-2.6,2c-5.5-2.5-7.1-10.8-7.2-16.2C255.7,99.6,255.9,90,260.6,85.8z"/>
		<path class="st0" d="M150,81.4c0.3,3.6,0.7,7.2,1.3,10.9c0.3,1.8,0.4,3.5-0.3,5.2c-0.4,1-1.5,1.7-2.6,1
			c-5.1-3.3-5.8-12.2-5.9-18.1c-0.7-5.5-0.2-10.3,3.5-9.8C149.9,71.1,149.7,78.6,150,81.4z"/>
		<path class="st0" d="M156.6,117.1c-6.9,1.5-14,0.6-20.8-0.9c-0.4-0.1-0.7-0.3-0.9-0.5c-0.3-0.2-0.5-0.4-0.7-0.7
			c-0.6-1-0.1-2.1,0.6-2.8c0.1-0.1,0.2-0.1,0.2-0.2c0.2-0.5,0.7-0.9,1.5-0.8c5.1,0.4,9.8-0.2,14.9-0.8c4.3-0.5,8.2-1.9,12.4-2.6
			c1.2-0.2,2.1,0.5,2.2,1.7C166.4,114.4,160.4,116.3,156.6,117.1z"/>
		<path class="st0" d="M163.4,125c-3.7,10.2-21,8.8-27.7,3c-0.8-0.7-0.6-2,0.2-2.7c0.2-0.9,0.9-1.8,2.1-1.4
			c4.8,1.5,9.7,1.4,14.6,0.7c2.3-0.3,7.7-3.1,9.9-1.6C163.2,123.5,163.7,124.3,163.4,125z"/>
		<path class="st0" d="M129.7,83.4c-0.2-3.4-1.1-8.4,1.7-11c0.5-0.5,1.5-0.7,2.1-0.3c3,2,2.1,7.6,2.4,10.7c0.5,4.7,3.3,10,2.5,14.7
			c-0.1,0.8-0.8,1.2-1.5,1.2c-0.6,0.3-1.3,0.3-1.9-0.4C131.8,94,130,88.9,129.7,83.4z"/>
		<path class="st0" d="M121.7,50c4.7,1.5,9.9,1.1,14.8,1.1c3.2,0,6.4-1.2,9.5-0.6c1.3,0.2,1.7,2.1,0.8,2.9
			c-3.9,3.8-11.6,4.1-16.7,3.7c-2.9-0.2-8.1-1.3-10-3.9c-0.2-0.3-0.3-0.5-0.3-0.8C119.2,51.3,120.1,49.5,121.7,50z"/>
		<path class="st0" d="M124.6,131.1c-8,2.2-9.2-22.9-8.7-26.6c0.1-1,0.9-1.5,1.7-1.6c0.6-0.8,1.7-1.1,2.6-0.3c1.4,1.2,1.8,2.9,2,4.7
			c0.5,4.2,1.1,8.8,2.4,12.8C125.4,122.4,128.8,130,124.6,131.1z"/>
		<path class="st0" d="M120.6,90.3c-1.2,2.1-3.2,3.2-5.4,3.6c-6.7,2.9-16.7,0.8-21.4-3.7c-1.1-1.1-0.4-2.5,0.8-2.8
			c0.4-0.3,0.9-0.5,1.5-0.3c7.7,2.1,15.2,1.5,22.9,0.6C120.5,87.5,121.2,89.2,120.6,90.3z"/>
		<path class="st0" d="M117.8,79.1c-5.8,4.4-17.1,5.7-23.7,2.4c-1.5-0.8-4-3.1-1.6-4.6c0,0,0,0,0,0c0.1-1,0.9-2,2.2-1.7
			c7.3,1.4,14.8,0.4,22.2,0.7C118.8,75.9,119.2,78,117.8,79.1z"/>
		<path class="st0" d="M87.6,107.8c1,0,1.7,0.8,1.7,1.7c0.5,6.7-11.2,6.1-15.3,5.9c-3.1-0.2-13-0.1-14.7-3.9
			c-1.4-0.9-0.5-3.6,1.5-3.1C69.8,110.5,78.7,107.8,87.6,107.8z"/>
		<path class="st0" d="M62.2,66.7c0.1-0.2,0.2-0.4,0.3-0.5c0.2-0.5,0.4-1,0.8-1.4c0.5-0.8,1.3-1.4,2.2-1.6c0.7-0.4,1.5-0.4,2.1,0.6
			c1,1.7,0.5,4.5,0.7,6.3c0.4,3.6,0.9,7.2,1.8,10.8c0.5,1.9,2.6,7.2,0.6,8.9c-1.7,1.5-3.2,0.6-4.6-0.9C61.1,83,59.8,73.6,62.2,66.7z
			"/>
		<path class="st0" d="M54.1,88.7c-1.9-1.8-2.2-6.1-2.6-8.5c-0.7-4.4-0.9-8.8-0.1-13.2c0-0.1,0.1-0.2,0.1-0.3c0.3-1.5,0.9-3,2.3-3.7
			c3.8-2,3.7,14.9,3.7,16.2C57.6,80.4,58.8,93.2,54.1,88.7z"/>
		<path class="st0" d="M85,166.2c-0.1,1.5-1.8,2.4-3,1.2c-4.8-4.8-5.8-12.6-6.8-19.4c-0.2-0.9-0.3-1.9-0.4-2.8c0-0.1,0-0.3-0.1-0.4
			c0-0.1,0-0.2,0-0.3c-0.1-2.6,0.5-4.7,2.9-4.7c3.8,0,3.6,6.5,4,8.8C82.5,154.3,85.5,160.5,85,166.2z"/>
		<path class="st0" d="M85.2,127.1c-6.5,4.1-25.9,3.6-29.1-4.9c-0.3-0.7,0.1-1.5,0.7-1.9c-0.2-1.2,0.7-2.5,2.1-1.9
			c8.1,3.2,16.4,1.4,24.7,2.6C87.1,121.5,88.7,124.9,85.2,127.1z"/>
		<path class="st0" d="M92.7,165.1c-4.5-5.3-6.4-14.5-6.2-21.7c0-1.6,0.1-3.2,0.5-4.7c0.6-2,2.4-4.6,4.8-3.2
			c2.6,1.5,1.6,5.5,1.6,7.9c0,4.4-0.2,9.3,1,13.6c0.6,2.3,1.2,4.4,1.3,6.8C95.7,165.4,93.6,166.3,92.7,165.1z"/>
		<path class="st0" d="M105.5,104.1c0.2-1.2,1.2-1.4,2-1.1c0.6-0.2,1.1-0.1,1.6,0.5c1.6,2.1,1.4,5.1,1.6,7.6
			c0.4,5.1,2,10.2,2.7,15.3c0.2,1.8-2.5,2.3-3.3,0.9C106.2,120.1,104.3,112.2,105.5,104.1z"/>
		<path class="st0" d="M109.1,144.4c6.4,3.2,14,0.8,20.8,1.6c1.2,0.1,2.4,1.4,1.5,2.6c-2.6,3.6-7.5,2.8-11.4,2.8
			c-4.2,0-10.1-0.1-12.9-4c-0.1-0.1-0.1-0.3-0.2-0.4C105.7,145.9,107.3,143.5,109.1,144.4z"/>
		<path class="st0" d="M106.8,156.4c-0.5-1.2,1-2.5,2.1-2.1c0.3,0.1,0.7,0.3,1,0.4c0.3-0.2,0.7-0.2,1.1-0.1
			c6.5,1.4,13.1,1.4,19.7,1.6c1.5,0,2.3,1.9,1.2,3c-3.6,3.6-10.8,2.8-15.3,2.5C112.7,161.3,108.4,160.6,106.8,156.4z"/>
		<path class="st0" d="M347.1,140.3c0.1,1.8,0.3,4.7-2.3,4.7c-2.5,0-4.4-4.1-5.3-5.9c-2.5-4.8-2.1-11.2-1.5-16.4
			c0.3-3.1,1.2-6.3,2.3-9.1c0.9-2.3,2.6-7.1,5.9-6.7c1,0.1,1.6,0.9,2,1.8c0.5,1.3,0.9,3.4,0.7,4.7c-0.2,0.9-0.3,1.9-0.5,2.8
			c-0.4,2.8-0.8,5.7-1.1,8.5c-0.4,3.3-0.5,6.6-0.4,9.9C346.8,136.5,346.9,138.4,347.1,140.3z"/>
		<path class="st0" d="M340.7,99.9c-5.6,0-18.1-0.1-19.2-7.7c-0.1-0.8,0.2-1.4,0.6-1.8c0.1-1,0.9-1.9,2.1-1.5
			c6.2,2.1,12.4,3.6,19,3.4c3.8-0.1,7.8-1.5,11.5-0.9c0.7,0.1,1.3,1,1.3,1.7C355.5,100.1,345.7,99.9,340.7,99.9z"/>
		<path class="st0" d="M332,138.1c0.1,1.7,0.2,3.4,0.3,5.1c0.1,1.4-2,2.4-3,1.2c-4.1-5.2-4.1-12.4-3-18.7c0.8-4.5,0.8-13,4.6-16.1
			c1.2-1,2.8-0.3,3,1.2c0.3,3.3-1.3,6.3-1.5,9.5c0,0.5-0.1,1-0.1,1.5c-0.2,2.4-0.5,4.8-0.6,7.3C331.7,132.2,331.8,135.2,332,138.1z"
			/>
		<path class="st0" d="M341.8,86.4c-5.9-0.3-13.4-0.8-17.4-5.7c-0.2-0.2-0.3-0.5-0.4-0.7c-0.9-1.2,0-3.4,1.7-2.8
			c5.5,1.9,11.6,3.2,17.5,3.2c4.8,0,9.2-1.2,13.8-1.7c1.4-0.2,2.1,1.6,1.5,2.6C355.6,87,347.3,86.7,341.8,86.4z"/>
		<path class="st0" d="M364.3,179.3c-4.7-3.6-5.6-10.8-5.1-16.3c0.4-4,0.5-11.2,4.5-13.5c0.9-0.5,2.4-0.1,2.6,1c0.1,1,0.1,2.1,0,3.1
			c0.3,0.4,0.5,0.9,0.4,1.5c-0.9,4.4-1.9,9.2-1,13.7c0.6,3,1.3,5.9,1.2,9C366.9,179,365.5,180.2,364.3,179.3z"/>
		<path class="st0" d="M379.9,170.4c0,1.8,0.7,4.5,0.2,6.2c-0.4,1.6-1.7,3.5-3.6,2.5c-5.5-2.8-6.4-14.9-5.8-19.8
			c0.4-4.1,1.3-8.6,4.6-11.4c1.1-1,3.4-1.1,4.1,0.6c1,2.3,1.3,4.8,1.2,7.4c0.1,0.3,0.2,0.6,0.1,1C380,161.3,379.8,165.8,379.9,170.4
			z"/>
		<path class="st0" d="M382.4,137.6c-4.6,1-11.6-0.3-17.2-2.4c-5.4-1.4-9.3-3.8-6.1-7.4c0.4-0.5,1.1-0.6,1.7-0.4
			c0.8,0.2,1.5,0.5,2.2,0.8c4.5,1.1,9.1,1.2,13.8,1.2c4.4,0,9.5-1.1,13.8-0.2c0.6,0.1,1.1,0.7,1.2,1.2
			C392.7,134.8,385.8,136.9,382.4,137.6z"/>
		<path class="st0" d="M382.6,122.3c-7.3-0.2-14.8-1.4-20.7-6c-0.5-0.4-0.6-1-0.5-1.6c-0.6-1.2,0.3-3,2-2.5
			c5.4,1.7,11.5,1.1,17.2,1.4c4.4,0.2,9.2-0.5,13.5,0.1c0.8,0.1,1.3,1,1.3,1.7C395.4,120.8,386.7,122.4,382.6,122.3z"/>
		<path class="st0" d="M378.9,95c0.5,2.2,0.6,5.9-2.1,6.6c-6.4,1.8-7.7-14.1-7.7-17.2c0-2.7,1.7-19.7,8.3-15.8
			c1.3,0.8,1.8,1.9,1.9,3.2c0.6,0.3,1,1,0.7,1.9C377.7,80.8,377.3,87.7,378.9,95z"/>
		<path class="st0" d="M392.2,95.9c0.2,2,0.8,4.1-0.6,5.7c-0.5,0.6-1.5,0.6-2.1,0.3c-4-2.1-4.7-8.1-4.9-12.1
			c-0.2-5.9-0.7-13.7,2.3-19c0.7-1.3,1.9-1.7,2.9-1.4c0.6-0.4,1.2-0.5,2-0.2c3.3,1.3,2.1,7.9,1,12.7C392.1,86.5,391.8,91,392.2,95.9
			z"/>
		<path class="st0" d="M412,110.8c-2,8.1-1,16.6-1.6,24.8c-0.2,2.8,0.1,8.4-3.3,9.3c-0.5,0.2-1.3,0-1.7-0.5
			c-3.1-3.8-2.8-11.1-2.5-15.7c0.5-6.4,2.5-12,4.6-18.1c0.2-0.7,0.8-1.1,1.4-1.2C409.8,107.9,412.5,108.7,412,110.8z"/>
		<path class="st0" d="M437.1,86.3c-4.9,9.7-27.6,12.9-33,2.1c-0.1-0.2-0.2-0.3-0.3-0.5c0-0.1-0.1-0.1-0.1-0.1
			c-0.1-0.2-0.1-0.3-0.1-0.5c0,0,0-0.1,0-0.1c-0.1-1.7,1-2.6,2.3-2.8c0.1,0,0.3-0.1,0.5-0.1c0.7,0,1.4,0.1,2,0.4
			c8.7,2.4,18.3,1.9,26.8-0.9C436.7,83.2,437.7,85,437.1,86.3z"/>
		<path class="st0" d="M407.3,74.1c0.1-1,0.9-1.9,2.1-1.6c8.5,1.8,16.9,1.7,25.5,1.2c1.5-0.1,2.3,2,1.2,3
			c-6.8,6.1-22.1,5.8-28.9-0.2C406.5,75.8,406.7,74.7,407.3,74.1z"/>
		<path class="st0" d="M230.3,148.9c0.6,2.1-0.8,5.1-3.4,4.4c-9.6-2.6-11.5-17.5-10.7-25.6c0.3-3.1,0.9-7.2,4.1-8.6
			c2.2-0.9,5.2-0.9,6,2c0.8,2.8,0.2,5.5-0.2,8.3C225.5,136.6,228.3,142.3,230.3,148.9z"/>
		<path class="st0" d="M208.8,115.4c-4.5-0.2-10.5-0.3-14-3.5c-0.5-0.4-0.6-1-0.5-1.4c-0.5-1.2,0.4-2.9,2-2.3
			c11.6,4.2,22.9,1.5,34.8,1.6c2,0,2.3,2.8,0.5,3.4C224.3,115.4,216.2,115.7,208.8,115.4z"/>
		<path class="st0" d="M211.7,127.6c-0.9,7.4,0.7,13.6,1.8,20.9c0.2,1.5-1.7,3.3-2.9,1.7c-3-3.8-3.9-9-4.2-13.7
			c-0.2-3.7-1.1-9.8,0.6-13.5c1.1-2.2,3.3-2.2,4.5-0.1c0.6,1.1,0.4,2.9,0.1,4.2C211.7,127.3,211.8,127.4,211.7,127.6z"/>
		<path class="st0" d="M196.5,98.6c0.1,0,0.1,0,0.2,0c0.3-0.2,0.5-0.3,0.9-0.2c10.8,0.7,21.6,1.3,32.4,0c0.9-0.1,1.8,0.9,1.7,1.7
			c0,5.7-9.4,5.2-13.2,5.3c-8.1,0.3-16.7,2-23.4-3.9C194.1,100.6,195,98.4,196.5,98.6z"/>
	</g>
	<g class="st6">
		<path class="st0" d="M26.9,40.5c6.3,24.9,22.3,87.4,32,111c12.2,29.8,6.5,42.8,46.9,46.9c34.7,3.5,106.2,1.9,136.4,1.1
			c30.2,0.8,101.7,2.4,136.4-1.1c40.3-4.1,34.6-17.1,46.9-46.9c9.7-23.6,27.1-95.7,33.3-120.6L26.9,40.5z M411.7,149.8
			c-2.1,2.5-4.5,4.8-7.3,6.8c-14.2,10.5-33.3,13.7-50.9,15.1c-10.1,0.8-20.1,0.9-30.2,1c-35.4,0.4-70.8,3.4-106.2,3.9
			c-16.7,0.3-33.4,0.2-50.1-0.1c-26.1-0.5-54.6,2.2-78.8-9.1c-15.2-7.1-25.2-20.8-31.6-35.2c-9.4-21.2-28.8-74.9,15.3-72.5
			c12.4,0.7,24.7,0.8,37.2,0.9c38.4,0.3,76.8,1.3,115.1,0.6c11.1-0.2,22.2-0.6,33.3-1.1c39.2-2,96.2-5.6,135.5-6.7
			c11.7-0.3,26.5-2.5,37.5,2.1C453.1,65.1,419.9,140,411.7,149.8z"/>
	</g>
	<path class="st7" d="M170.2,68.9c-17,0.1-33.9,0.2-50.9,0C107,68.9,91,66.5,79.2,70.6c-15,5.3-6.1,23.4-1.8,31.9
		c4.2,8.3,11.4,15.2,20.5,20.4c24.1,13.8,56.5,17.3,85.5,18.6c23.8,1.1,47.7,0.6,71.5-0.6c31.5-1.5,64.1-1,94.8-7.5
		c30.2-6.3,55.5-26,67.4-48.6c3.1-5.8,10.2-17.4,0.9-21.7c-10.2-4.7-126.7,4.5-171.6,5C221,68.4,195.6,68.7,170.2,68.9z"/>
	<g class="st4">
		<path class="st0" d="M414.1,171.1c-27.3,19.9-119.2,16.3-135.4,16.7c-32.6,0.7-65.3,0.9-98,0.8c-16.4-0.1-77.8-3.5-91.6-6.3
			c-9-1.8-17.3-5.3-23.7-11.4c5.4,16.3,9.9,24.3,40,27.4c34.7,3.5,106.2,1.9,136.4,1.1c30.2,0.8,101.7,2.4,136.4-1.1
			c32.9-3.3,35.2-12.6,41.5-32C417.8,168,416,169.7,414.1,171.1z"/>
		<path class="st0" d="M62,44.9c22.8-2.1,46-0.6,68.9-0.7c32.9-0.1,65.8-1.5,98.7-1.7c33.1-0.2,66.2,0.5,99.2-0.2
			c32.4-0.7,65.3-3.8,97.7-2.1c6.7,0.4,19.9-0.2,24.3,6.5c1.2,1.9,1.8,4,1.9,6.2c2.2-9,4.1-16.7,5.5-22.2L26.4,40.5
			c0.9,3.7,2.1,8.2,3.4,13.3c2.2-1.6,4.8-2.8,7.6-3.7C44.8,46.1,56.8,45.3,62,44.9z"/>
	</g>
</g>
</svg>
